<svg xmlns="http://www.w3.org/2000/svg" width="1100" height="600" font-family="sans-serif" font-size="13">
<defs><marker id="arr" markerWidth="10" markerHeight="8" refX="9" refY="4" orient="auto"><path d="M0,0 L10,4 L0,8 z" fill="#333"/></marker></defs>
<rect width="1100" height="600" fill="white"/>
<text x="550.0" y="30" text-anchor="middle" font-size="20" font-weight="bold">ROS 2 graph: nodes, topics and actions (per robot N = 1, 2)</text>
<path d="M220,300.0 L255.0,300.0 L255.0,145.0 L290,145.0" fill="none" stroke="#333" stroke-width="1.6" marker-end="url(#arr)"/>
<path d="M460,145.0 L495.0,145.0 L495.0,145.0 L530,145.0" fill="none" stroke="#333" stroke-width="1.6" marker-end="url(#arr)"/>
<path d="M620.0,190 L620.0,210.0 L620.0,210.0 L620.0,230" fill="none" stroke="#333" stroke-width="1.6" marker-end="url(#arr)"/>
<path d="M710,255.0 L745.0,255.0 L745.0,255.0 L780,255.0" fill="none" stroke="#333" stroke-width="1.6" marker-end="url(#arr)"/>
<path d="M870.0,305 L870.0,332.5 L870.0,332.5 L870.0,360" fill="none" stroke="#333" stroke-width="1.6" marker-end="url(#arr)"/>
<path d="M870.0,410 L870.0,430.0 L870.0,430.0 L870.0,450" fill="none" stroke="#333" stroke-width="1.6" marker-end="url(#arr)"/>
<path d="M760,495.0 L720.0,495.0 L720.0,495.0 L680,495.0" fill="none" stroke="#333" stroke-width="1.6" marker-end="url(#arr)"/>
<path d="M470,495.0 L445.0,495.0 L445.0,475.0 L420,475.0" fill="none" stroke="#333" stroke-width="1.6" marker-end="url(#arr)"/>
<path d="M335.0,420 L335.0,385.0 L375.0,385.0 L375.0,350" fill="none" stroke="#333" stroke-width="1.6" marker-end="url(#arr)"/>
<path d="M290,325.0 L255.0,325.0 L255.0,300.0 L220,300.0" fill="none" stroke="#333" stroke-width="1.6" marker-end="url(#arr)"/>
<rect x="40" y="250" width="180" height="100" rx="9" fill="#E8F1FB" stroke="#1F5FA8" stroke-width="1.8"/>
<text x="130.0" y="288" text-anchor="middle" font-weight="bold">gzserver</text>
<text x="130.0" y="304" text-anchor="middle" fill="#444" font-size="12">diff_drive + lidar plugins</text>
<text x="130.0" y="320" text-anchor="middle" fill="#444" font-size="12">robot_state_publisher</text>
<rect x="290" y="120" width="170" height="50" rx="9" fill="#F2F2F2" stroke="#555555" stroke-width="1.8"/>
<text x="375.0" y="149" text-anchor="middle" font-weight="bold">/robotN/scan</text>
<rect x="530" y="100" width="180" height="90" rx="9" fill="#FFF4E0" stroke="#B26A00" stroke-width="1.8"/>
<text x="620.0" y="141" text-anchor="middle" font-weight="bold">slam_toolbox</text>
<text x="620.0" y="157" text-anchor="middle" fill="#444" font-size="12">(robotN namespace)</text>
<rect x="530" y="230" width="180" height="50" rx="9" fill="#F2F2F2" stroke="#555555" stroke-width="1.8"/>
<text x="620.0" y="259" text-anchor="middle" font-weight="bold">/robotN/map</text>
<rect x="780" y="205" width="180" height="100" rx="9" fill="#EAF6EC" stroke="#2E7D32" stroke-width="1.8"/>
<text x="870.0" y="243" text-anchor="middle" font-weight="bold">map_merge_node</text>
<text x="870.0" y="259" text-anchor="middle" fill="#444" font-size="12">fuses maps</text>
<text x="870.0" y="275" text-anchor="middle" fill="#444" font-size="12">static TF map→robotN/map</text>
<rect x="800" y="360" width="140" height="50" rx="9" fill="#F2F2F2" stroke="#555555" stroke-width="1.8"/>
<text x="870.0" y="389" text-anchor="middle" font-weight="bold">/map</text>
<rect x="760" y="450" width="220" height="90" rx="9" fill="#EAF6EC" stroke="#2E7D32" stroke-width="1.8"/>
<text x="870.0" y="491" text-anchor="middle" font-weight="bold">frontier_coordinator</text>
<text x="870.0" y="507" text-anchor="middle" fill="#444" font-size="12">or rl_policy_coordinator</text>
<rect x="470" y="470" width="210" height="50" rx="9" fill="#F2F2F2" stroke="#555555" stroke-width="1.8"/>
<text x="575.0" y="499" text-anchor="middle" font-weight="bold">/robotN/navigate_to_pose</text>
<rect x="250" y="420" width="170" height="110" rx="9" fill="#FFF4E0" stroke="#B26A00" stroke-width="1.8"/>
<text x="335.0" y="463" text-anchor="middle" font-weight="bold">Nav2 stack</text>
<text x="335.0" y="479" text-anchor="middle" fill="#444" font-size="12">bt_navigator, planner,</text>
<text x="335.0" y="495" text-anchor="middle" fill="#444" font-size="12">controller, smoother</text>
<rect x="290" y="300" width="170" height="50" rx="9" fill="#F2F2F2" stroke="#555555" stroke-width="1.8"/>
<text x="375.0" y="329" text-anchor="middle" font-weight="bold">/robotN/cmd_vel</text>
<text x="720" y="488" font-size="11.5" fill="#333" text-anchor="middle" paint-order="stroke" stroke="white" stroke-width="4">goal</text>
<rect x="30" y="504" width="14" height="12" fill="#F2F2F2" stroke="#555555"/><text x="50" y="514" font-size="12">topic / action</text>
<rect x="30" y="526" width="14" height="12" fill="#EAF6EC" stroke="#2E7D32"/><text x="50" y="536" font-size="12">node in this repo</text>
<rect x="30" y="548" width="14" height="12" fill="#FFF4E0" stroke="#B26A00"/><text x="50" y="558" font-size="12">external ROS package</text>
<rect x="30" y="570" width="14" height="12" fill="#E8F1FB" stroke="#1F5FA8"/><text x="50" y="580" font-size="12">Gazebo</text>
</svg>