<svg xmlns="http://www.w3.org/2000/svg" width="640" height="400" font-family="sans-serif" font-size="12">
<rect width="640" height="400" fill="white"/>
<text x="320.0" y="24" text-anchor="middle" font-size="15" font-weight="bold">Gazebo: frontier decisions per run</text>
<text x="18" y="195.0" transform="rotate(-90 18 195.0)" text-anchor="middle">decisions</text>
<line x1="70" x2="620" y1="340.0" y2="340.0" stroke="#e5e5e5"/><text x="62" y="344.0" text-anchor="end">0</text>
<line x1="70" x2="620" y1="285.2" y2="285.2" stroke="#e5e5e5"/><text x="62" y="289.2" text-anchor="end">5</text>
<line x1="70" x2="620" y1="230.4" y2="230.4" stroke="#e5e5e5"/><text x="62" y="234.4" text-anchor="end">10</text>
<line x1="70" x2="620" y1="175.5" y2="175.5" stroke="#e5e5e5"/><text x="62" y="179.5" text-anchor="end">15</text>
<line x1="70" x2="620" y1="120.7" y2="120.7" stroke="#e5e5e5"/><text x="62" y="124.7" text-anchor="end">20</text>
<line x1="70" x2="620" y1="65.9" y2="65.9" stroke="#e5e5e5"/><text x="62" y="69.9" text-anchor="end">25</text>
<line x1="70" x2="620" y1="340.0" y2="340.0" stroke="#333"/>
<text x="345.0" y="358" text-anchor="middle"></text>
<rect x="152.5" y="109.8" width="177.1" height="230.2" fill="#1f77b4" fill-opacity="0.85"/>

<line x1="241.1" x2="241.1" y1="130.1" y2="89.5" stroke="#222"/><line x1="236.1" x2="246.1" y1="89.5" y2="89.5" stroke="#222"/><line x1="236.1" x2="246.1" y1="130.1" y2="130.1" stroke="#222"/>
<circle cx="187.2" cy="142.6" r="2.6" fill="white" stroke="#222"/>
<circle cx="202.6" cy="87.8" r="2.6" fill="white" stroke="#222"/>
<circle cx="218.0" cy="120.7" r="2.6" fill="white" stroke="#222"/>
<circle cx="233.4" cy="131.7" r="2.6" fill="white" stroke="#222"/>
<circle cx="248.8" cy="98.8" r="2.6" fill="white" stroke="#222"/>
<circle cx="264.2" cy="98.8" r="2.6" fill="white" stroke="#222"/>
<circle cx="279.6" cy="87.8" r="2.6" fill="white" stroke="#222"/>
<circle cx="294.9" cy="109.8" r="2.6" fill="white" stroke="#222"/>
<rect x="345.0" y="145.4" width="177.1" height="194.6" fill="#d62728" fill-opacity="0.85"/>

<line x1="433.6" x2="433.6" y1="159.4" y2="131.3" stroke="#222"/><line x1="428.6" x2="438.6" y1="131.3" y2="131.3" stroke="#222"/><line x1="428.6" x2="438.6" y1="159.4" y2="159.4" stroke="#222"/>
<circle cx="379.7" cy="164.6" r="2.6" fill="white" stroke="#222"/>
<circle cx="395.1" cy="142.6" r="2.6" fill="white" stroke="#222"/>
<circle cx="410.4" cy="131.7" r="2.6" fill="white" stroke="#222"/>
<circle cx="425.9" cy="153.6" r="2.6" fill="white" stroke="#222"/>
<circle cx="441.2" cy="164.6" r="2.6" fill="white" stroke="#222"/>
<circle cx="456.7" cy="131.7" r="2.6" fill="white" stroke="#222"/>
<circle cx="472.1" cy="131.7" r="2.6" fill="white" stroke="#222"/>
<circle cx="487.4" cy="142.6" r="2.6" fill="white" stroke="#222"/>
<rect x="82" y="49" width="14" height="10" fill="#1f77b4"/><text x="102" y="58">PPO</text>
<rect x="82" y="67" width="14" height="10" fill="#d62728"/><text x="102" y="76">Heuristic</text>
<text x="620" y="44" text-anchor="end" font-size="11" fill="#555">mean ± std over 8 runs per policy; dots = individual runs</text>
</svg>