<svg xmlns="http://www.w3.org/2000/svg" width="640" height="400" font-family="sans-serif">
<rect width="640" height="400" fill="white"/>
<text x="320.0" y="24" text-anchor="middle" font-size="14" font-weight="bold">Explained variance of the value function</text>
<text x="630" y="44" text-anchor="end" font-size="11" fill="#555">1 = perfect value prediction</text>
<line x1="70" x2="630" y1="304.9" y2="304.9" stroke="#e5e5e5"/><text x="64" y="308.9" text-anchor="end" font-size="12">-1</text>
<line x1="70" x2="630" y1="247.2" y2="247.2" stroke="#e5e5e5"/><text x="64" y="251.2" text-anchor="end" font-size="12">-0.5</text>
<line x1="70" x2="630" y1="189.5" y2="189.5" stroke="#e5e5e5"/><text x="64" y="193.5" text-anchor="end" font-size="12">0</text>
<line x1="70" x2="630" y1="131.9" y2="131.9" stroke="#e5e5e5"/><text x="64" y="135.9" text-anchor="end" font-size="12">0.5</text>
<line x1="70" x2="630" y1="74.2" y2="74.2" stroke="#e5e5e5"/><text x="64" y="78.2" text-anchor="end" font-size="12">1</text>
<text x="70.0" y="358" text-anchor="middle" font-size="12">0k</text>
<text x="163.0" y="358" text-anchor="middle" font-size="12">50k</text>
<text x="256.0" y="358" text-anchor="middle" font-size="12">100k</text>
<text x="349.0" y="358" text-anchor="middle" font-size="12">150k</text>
<text x="442.0" y="358" text-anchor="middle" font-size="12">200k</text>
<text x="535.0" y="358" text-anchor="middle" font-size="12">250k</text>
<text x="628.0" y="358" text-anchor="middle" font-size="12">300k</text>
<text x="350.0" y="386" text-anchor="middle" font-size="12">training decisions</text>
<text x="12" y="195.0" transform="rotate(-90 12 195.0)" text-anchor="middle" font-size="12">explained variance</text>
<polyline points="77.6,315.8 81.4,91.3 85.2,88.0 89.0,85.5 92.9,84.5 96.7,83.1 100.5,81.5 104.3,82.1 108.1,81.5 111.9,80.1 115.7,78.1 119.5,77.3 123.3,76.1 127.1,75.0 131.0,74.8 134.8,74.5 138.6,74.2 142.4,74.3 146.2,74.4 150.0,74.3 153.8,74.3 157.6,74.2 161.4,74.2 165.2,74.3 169.0,74.2 172.9,74.2 176.7,74.2 180.5,74.2 184.3,74.2 188.1,74.2 191.9,74.2 195.7,74.2 199.5,74.3 203.3,74.2 207.1,74.2 211.0,74.2 214.8,74.2 218.6,74.3 222.4,74.2 226.2,74.2 230.0,74.2 233.8,74.2 237.6,74.2 241.4,74.2 245.2,74.3 249.0,74.2 252.9,74.2 256.7,74.2 260.5,74.2 264.3,74.2 268.1,74.2 271.9,74.2 275.7,74.3 279.5,74.2 283.3,74.2 287.1,74.2 291.0,74.2 294.8,74.2 298.6,74.2 302.4,74.2 306.2,74.2 310.0,74.2 313.8,74.2 317.6,74.2 321.4,74.2 325.2,74.2 329.0,74.2 332.9,74.2 336.7,74.2 340.5,74.2 344.3,74.2 348.1,74.2 351.9,74.2 355.7,74.2 359.5,74.2 363.3,74.2 367.1,74.3 371.0,74.2 374.8,74.2 378.6,74.2 382.4,74.2 386.2,74.2 390.0,74.2 393.8,74.2 397.6,74.2 401.4,74.2 405.2,74.2 409.0,74.2 412.9,74.2 416.7,74.2 420.5,74.2 424.3,74.2 428.1,74.2 431.9,74.2 435.7,74.2 439.5,74.2 443.3,74.2 447.1,74.2 451.0,74.2 454.8,74.2 458.6,74.2 462.4,74.2 466.2,74.2 470.0,74.2 473.8,74.2 477.6,74.2 481.4,74.2 485.2,74.2 489.0,74.2 492.9,74.2 496.7,74.2 500.5,74.2 504.3,74.2 508.1,74.2 511.9,74.2 515.7,74.2 519.5,74.2 523.3,74.2 527.1,74.2 531.0,74.2 534.8,74.2 538.6,74.2 542.4,74.2 546.2,74.2 550.0,74.2 553.8,74.2 557.6,74.2 561.4,74.2 565.2,74.2 569.0,74.2 572.9,74.2 576.7,74.2 580.5,74.2 584.3,74.2 588.1,74.2 591.9,74.2 595.7,74.2 599.5,74.2 603.3,74.2 607.1,74.2 611.0,74.2 614.8,74.2 618.6,74.2 622.4,74.2 626.2,74.2 630.0,74.2" fill="none" stroke="#1f77b4" stroke-width="2.2"/>
</svg>