<svg xmlns="http://www.w3.org/2000/svg" width="640" height="400" font-family="sans-serif">
<rect width="640" height="400" fill="white"/>
<text x="320.0" y="24" text-anchor="middle" font-size="14" font-weight="bold">Approximate KL divergence per update</text>
<text x="630" y="44" text-anchor="end" font-size="11" fill="#555">size of each policy update</text>
<line x1="70" x2="630" y1="315.8" y2="315.8" stroke="#e5e5e5"/><text x="64" y="319.8" text-anchor="end" font-size="12">0</text>
<line x1="70" x2="630" y1="244.0" y2="244.0" stroke="#e5e5e5"/><text x="64" y="248.0" text-anchor="end" font-size="12">0.01</text>
<line x1="70" x2="630" y1="172.1" y2="172.1" stroke="#e5e5e5"/><text x="64" y="176.1" text-anchor="end" font-size="12">0.02</text>
<line x1="70" x2="630" y1="100.2" y2="100.2" stroke="#e5e5e5"/><text x="64" y="104.2" text-anchor="end" font-size="12">0.03</text>
<text x="70.0" y="358" text-anchor="middle" font-size="12">0k</text>
<text x="163.0" y="358" text-anchor="middle" font-size="12">50k</text>
<text x="256.0" y="358" text-anchor="middle" font-size="12">100k</text>
<text x="349.0" y="358" text-anchor="middle" font-size="12">150k</text>
<text x="442.0" y="358" text-anchor="middle" font-size="12">200k</text>
<text x="535.0" y="358" text-anchor="middle" font-size="12">250k</text>
<text x="628.0" y="358" text-anchor="middle" font-size="12">300k</text>
<text x="350.0" y="386" text-anchor="middle" font-size="12">training decisions</text>
<text x="12" y="195.0" transform="rotate(-90 12 195.0)" text-anchor="middle" font-size="12">KL</text>
<polyline points="77.6,203.6 81.4,251.4 85.2,247.7 89.0,213.6 92.9,246.9 96.7,252.5 100.5,244.6 104.3,247.7 108.1,227.8 111.9,215.9 115.7,158.1 119.5,168.0 123.3,224.1 127.1,164.3 131.0,74.5 134.8,206.5 138.6,271.6 142.4,256.0 146.2,290.9 150.0,301.8 153.8,278.5 157.6,288.0 161.4,280.8 165.2,215.6 169.0,313.4 172.9,74.2 176.7,309.6 180.5,315.8 184.3,311.6 188.1,311.9 191.9,315.8 195.7,315.8 199.5,307.0 203.3,308.4 207.1,314.8 211.0,305.9 214.8,315.8 218.6,313.6 222.4,315.8 226.2,315.8 230.0,302.4 233.8,315.8 237.6,315.8 241.4,315.8 245.2,314.8 249.0,311.0 252.9,314.1 256.7,315.8 260.5,312.9 264.3,315.8 268.1,306.4 271.9,315.8 275.7,315.8 279.5,313.9 283.3,315.8 287.1,315.8 291.0,315.8 294.8,315.8 298.6,315.8 302.4,315.8 306.2,315.8 310.0,313.9 313.8,315.1 317.6,315.8 321.4,307.3 325.2,315.8 329.0,315.8 332.9,315.8 336.7,315.8 340.5,315.8 344.3,315.8 348.1,315.8 351.9,315.8 355.7,315.8 359.5,315.8 363.3,315.8 367.1,315.8 371.0,315.8 374.8,315.8 378.6,315.8 382.4,315.8 386.2,315.8 390.0,315.8 393.8,309.7 397.6,315.8 401.4,315.8 405.2,315.8 409.0,306.6 412.9,315.8 416.7,309.7 420.5,315.8 424.3,315.8 428.1,315.8 431.9,315.8 435.7,315.8 439.5,314.6 443.3,315.8 447.1,315.8 451.0,315.8 454.8,315.8 458.6,315.8 462.4,310.0 466.2,315.8 470.0,315.8 473.8,315.8 477.6,315.8 481.4,315.8 485.2,315.8 489.0,315.8 492.9,315.8 496.7,315.8 500.5,315.8 504.3,315.8 508.1,315.8 511.9,315.8 515.7,315.8 519.5,315.8 523.3,315.8 527.1,314.8 531.0,315.8 534.8,315.8 538.6,315.8 542.4,315.8 546.2,315.8 550.0,315.8 553.8,315.8 557.6,315.8 561.4,315.8 565.2,315.8 569.0,315.8 572.9,315.8 576.7,315.8 580.5,315.8 584.3,315.8 588.1,315.8 591.9,315.8 595.7,315.8 599.5,315.8 603.3,315.8 607.1,315.8 611.0,315.8 614.8,315.8 618.6,315.8 622.4,315.8 626.2,315.8 630.0,315.8" fill="none" stroke="#1f77b4" stroke-width="2.2"/>
</svg>