<svg xmlns="http://www.w3.org/2000/svg" width="640" height="400" font-family="sans-serif">
<rect width="640" height="400" fill="white"/>
<text x="320.0" y="24" text-anchor="middle" font-size="14" font-weight="bold">Learning rate (linear decay)</text>
<line x1="70" x2="630" y1="316.6" y2="316.6" stroke="#e5e5e5"/><text x="64" y="320.6" text-anchor="end" font-size="12">0</text>
<line x1="70" x2="630" y1="235.3" y2="235.3" stroke="#e5e5e5"/><text x="64" y="239.3" text-anchor="end" font-size="12">1e-04</text>
<line x1="70" x2="630" y1="153.9" y2="153.9" stroke="#e5e5e5"/><text x="64" y="157.9" text-anchor="end" font-size="12">2e-04</text>
<line x1="70" x2="630" y1="72.5" y2="72.5" stroke="#e5e5e5"/><text x="64" y="76.5" text-anchor="end" font-size="12">3e-04</text>
<text x="70.0" y="358" text-anchor="middle" font-size="12">0k</text>
<text x="163.0" y="358" text-anchor="middle" font-size="12">50k</text>
<text x="256.0" y="358" text-anchor="middle" font-size="12">100k</text>
<text x="349.0" y="358" text-anchor="middle" font-size="12">150k</text>
<text x="442.0" y="358" text-anchor="middle" font-size="12">200k</text>
<text x="535.0" y="358" text-anchor="middle" font-size="12">250k</text>
<text x="628.0" y="358" text-anchor="middle" font-size="12">300k</text>
<text x="350.0" y="386" text-anchor="middle" font-size="12">training decisions</text>
<text x="12" y="195.0" transform="rotate(-90 12 195.0)" text-anchor="middle" font-size="12">learning rate</text>
<polyline points="77.6,74.2 81.4,75.8 85.2,77.5 89.0,79.2 92.9,80.8 96.7,82.5 100.5,84.2 104.3,85.8 108.1,87.5 111.9,89.2 115.7,90.8 119.5,92.5 123.3,94.2 127.1,95.8 131.0,97.5 134.8,99.2 138.6,100.8 142.4,102.5 146.2,104.2 150.0,105.8 153.8,107.5 157.6,109.2 161.4,110.8 165.2,112.5 169.0,114.2 172.9,115.8 176.7,117.5 180.5,119.2 184.3,120.8 188.1,122.5 191.9,124.2 195.7,125.8 199.5,127.5 203.3,129.2 207.1,130.8 211.0,132.5 214.8,134.2 218.6,135.8 222.4,137.5 226.2,139.2 230.0,140.8 233.8,142.5 237.6,144.2 241.4,145.8 245.2,147.5 249.0,149.2 252.9,150.8 256.7,152.5 260.5,154.2 264.3,155.8 268.1,157.5 271.9,159.2 275.7,160.8 279.5,162.5 283.3,164.2 287.1,165.8 291.0,167.5 294.8,169.2 298.6,170.8 302.4,172.5 306.2,174.2 310.0,175.8 313.8,177.5 317.6,179.2 321.4,180.8 325.2,182.5 329.0,184.2 332.9,185.8 336.7,187.5 340.5,189.2 344.3,190.8 348.1,192.5 351.9,194.2 355.7,195.8 359.5,197.5 363.3,199.2 367.1,200.8 371.0,202.5 374.8,204.2 378.6,205.8 382.4,207.5 386.2,209.2 390.0,210.8 393.8,212.5 397.6,214.2 401.4,215.8 405.2,217.5 409.0,219.2 412.9,220.8 416.7,222.5 420.5,224.2 424.3,225.8 428.1,227.5 431.9,229.2 435.7,230.8 439.5,232.5 443.3,234.2 447.1,235.8 451.0,237.5 454.8,239.2 458.6,240.8 462.4,242.5 466.2,244.2 470.0,245.8 473.8,247.5 477.6,249.2 481.4,250.8 485.2,252.5 489.0,254.2 492.9,255.8 496.7,257.5 500.5,259.2 504.3,260.8 508.1,262.5 511.9,264.2 515.7,265.8 519.5,267.5 523.3,269.2 527.1,270.8 531.0,272.5 534.8,274.2 538.6,275.8 542.4,277.5 546.2,279.2 550.0,280.8 553.8,282.5 557.6,284.2 561.4,285.8 565.2,287.5 569.0,289.2 572.9,290.8 576.7,292.5 580.5,294.2 584.3,295.8 588.1,297.5 591.9,299.2 595.7,300.8 599.5,302.5 603.3,304.2 607.1,305.8 611.0,307.5 614.8,309.2 618.6,310.8 622.4,312.5 626.2,314.2 630.0,315.8" fill="none" stroke="#1f77b4" stroke-width="2.2"/>
</svg>